<mxfile host="app.diagrams.net" modified="2022-09-28T01:55:19.574Z" agent="5.0 (Windows NT 10.0; Win64; x64) AppleWebKit/537.36 (KHTML, like Gecko) Chrome/105.0.0.0 Safari/537.36" etag="j5tHNE6ak5cOsEC_AP0v" version="20.2.3" type="github">
  <diagram id="ZOt4uicEZW6HwHJQP9Ld" name="Page-1">
    <mxGraphModel dx="1298" dy="674" grid="1" gridSize="10" guides="1" tooltips="1" connect="1" arrows="1" fold="1" page="1" pageScale="1" pageWidth="827" pageHeight="1169" math="0" shadow="0">
      <root>
        <mxCell id="0" />
        <mxCell id="1" parent="0" />
        <mxCell id="2MkG3pbl4p7UUgt_Ae9u-49" value="&lt;blockquote style=&quot;margin: 0 0 0 40px; border: none; padding: 0px;&quot;&gt;&lt;b&gt;Queue&amp;lt;Msg&amp;gt;&lt;br&gt;&lt;/b&gt;&lt;font style=&quot;font-size: 12px;&quot;&gt;&lt;i&gt;Ordering by TimeStamp&lt;br&gt;&lt;/i&gt;&lt;/font&gt;&lt;font style=&quot;font-size: 12px;&quot;&gt;&lt;i&gt;Keep it O(LogN) When Search&lt;br&gt;&lt;/i&gt;&lt;/font&gt;&lt;font style=&quot;font-size: 12px;&quot;&gt;&lt;i&gt;Capacity can be config&lt;/i&gt;&lt;/font&gt;&lt;/blockquote&gt;" style="shape=note;whiteSpace=wrap;html=1;backgroundOutline=1;darkOpacity=0.05;rounded=0;shadow=0;glass=0;sketch=1;hachureGap=4;fontFamily=Comic Sans MS;fontSize=15;align=left;dashed=1;" vertex="1" parent="1">
          <mxGeometry x="1116" y="370" width="250" height="100" as="geometry" />
        </mxCell>
        <mxCell id="2MkG3pbl4p7UUgt_Ae9u-29" value="" style="rounded=0;whiteSpace=wrap;html=1;sketch=1;hachureGap=4;fontFamily=Comic Sans MS;fontSize=15;" vertex="1" parent="1">
          <mxGeometry x="80" y="530" width="1040" height="290" as="geometry" />
        </mxCell>
        <mxCell id="2MkG3pbl4p7UUgt_Ae9u-14" value="" style="rounded=0;whiteSpace=wrap;html=1;sketch=1;hachureGap=4;fontFamily=Architects Daughter;fontSource=https%3A%2F%2Ffonts.googleapis.com%2Fcss%3Ffamily%3DArchitects%2BDaughter;fontSize=15;" vertex="1" parent="1">
          <mxGeometry x="80" y="200" width="710" height="210" as="geometry" />
        </mxCell>
        <mxCell id="2MkG3pbl4p7UUgt_Ae9u-7" style="edgeStyle=orthogonalEdgeStyle;rounded=0;orthogonalLoop=1;jettySize=auto;html=1;exitX=1;exitY=0.5;exitDx=0;exitDy=0;entryX=0;entryY=0.5;entryDx=0;entryDy=0;sketch=1;curved=1;fontFamily=Architects Daughter;fontSource=https%3A%2F%2Ffonts.googleapis.com%2Fcss%3Ffamily%3DArchitects%2BDaughter;" edge="1" parent="1" source="2MkG3pbl4p7UUgt_Ae9u-1" target="2MkG3pbl4p7UUgt_Ae9u-2">
          <mxGeometry relative="1" as="geometry" />
        </mxCell>
        <mxCell id="2MkG3pbl4p7UUgt_Ae9u-1" value="RIA" style="rounded=0;whiteSpace=wrap;html=1;sketch=1;fontFamily=Architects Daughter;fontSource=https%3A%2F%2Ffonts.googleapis.com%2Fcss%3Ffamily%3DArchitects%2BDaughter;" vertex="1" parent="1">
          <mxGeometry x="370" y="60" width="120" height="30" as="geometry" />
        </mxCell>
        <mxCell id="2MkG3pbl4p7UUgt_Ae9u-2" value="Pioneer" style="rounded=0;whiteSpace=wrap;html=1;sketch=1;fontFamily=Architects Daughter;fontSource=https%3A%2F%2Ffonts.googleapis.com%2Fcss%3Ffamily%3DArchitects%2BDaughter;" vertex="1" parent="1">
          <mxGeometry x="650" y="60" width="120" height="30" as="geometry" />
        </mxCell>
        <mxCell id="2MkG3pbl4p7UUgt_Ae9u-6" style="edgeStyle=orthogonalEdgeStyle;rounded=0;orthogonalLoop=1;jettySize=auto;html=1;exitX=1;exitY=0.5;exitDx=0;exitDy=0;entryX=0;entryY=0.5;entryDx=0;entryDy=0;sketch=1;curved=1;fontFamily=Architects Daughter;fontSource=https%3A%2F%2Ffonts.googleapis.com%2Fcss%3Ffamily%3DArchitects%2BDaughter;" edge="1" parent="1" source="2MkG3pbl4p7UUgt_Ae9u-3" target="2MkG3pbl4p7UUgt_Ae9u-1">
          <mxGeometry relative="1" as="geometry" />
        </mxCell>
        <mxCell id="2MkG3pbl4p7UUgt_Ae9u-3" value="SB Queue" style="rounded=0;whiteSpace=wrap;html=1;sketch=1;fontFamily=Architects Daughter;fontSource=https%3A%2F%2Ffonts.googleapis.com%2Fcss%3Ffamily%3DArchitects%2BDaughter;" vertex="1" parent="1">
          <mxGeometry x="100" y="60" width="120" height="30" as="geometry" />
        </mxCell>
        <mxCell id="2MkG3pbl4p7UUgt_Ae9u-16" value="&lt;font face=&quot;Comic Sans MS&quot;&gt;(2)&lt;/font&gt;" style="edgeStyle=orthogonalEdgeStyle;curved=1;rounded=0;sketch=1;hachureGap=4;orthogonalLoop=1;jettySize=auto;html=1;exitX=0.5;exitY=1;exitDx=0;exitDy=0;entryX=0.5;entryY=0;entryDx=0;entryDy=0;fontFamily=Architects Daughter;fontSource=https%3A%2F%2Ffonts.googleapis.com%2Fcss%3Ffamily%3DArchitects%2BDaughter;fontSize=15;endArrow=open;startSize=14;endSize=14;sourcePerimeterSpacing=8;targetPerimeterSpacing=8;" edge="1" parent="1" source="2MkG3pbl4p7UUgt_Ae9u-8" target="2MkG3pbl4p7UUgt_Ae9u-13">
          <mxGeometry relative="1" as="geometry" />
        </mxCell>
        <mxCell id="2MkG3pbl4p7UUgt_Ae9u-18" value="&lt;font face=&quot;Comic Sans MS&quot;&gt;(4)&lt;/font&gt;" style="edgeStyle=orthogonalEdgeStyle;curved=1;rounded=0;sketch=1;hachureGap=4;orthogonalLoop=1;jettySize=auto;html=1;exitX=1;exitY=0.5;exitDx=0;exitDy=0;entryX=0;entryY=0.5;entryDx=0;entryDy=0;fontFamily=Architects Daughter;fontSource=https%3A%2F%2Ffonts.googleapis.com%2Fcss%3Ffamily%3DArchitects%2BDaughter;fontSize=15;endArrow=open;startSize=14;endSize=14;sourcePerimeterSpacing=8;targetPerimeterSpacing=8;" edge="1" parent="1" source="2MkG3pbl4p7UUgt_Ae9u-8" target="2MkG3pbl4p7UUgt_Ae9u-11">
          <mxGeometry relative="1" as="geometry" />
        </mxCell>
        <mxCell id="2MkG3pbl4p7UUgt_Ae9u-8" value="Compare" style="rounded=1;whiteSpace=wrap;html=1;sketch=1;hachureGap=4;fontFamily=Architects Daughter;fontSource=https%3A%2F%2Ffonts.googleapis.com%2Fcss%3Ffamily%3DArchitects%2BDaughter;fontSize=15;fillColor=#f8cecc;strokeColor=#b85450;" vertex="1" parent="1">
          <mxGeometry x="290" y="230" width="120" height="30" as="geometry" />
        </mxCell>
        <mxCell id="2MkG3pbl4p7UUgt_Ae9u-15" value="&lt;font face=&quot;Comic Sans MS&quot;&gt;(1)&lt;/font&gt;" style="edgeStyle=orthogonalEdgeStyle;curved=1;rounded=0;sketch=1;hachureGap=4;orthogonalLoop=1;jettySize=auto;html=1;exitX=1;exitY=0.5;exitDx=0;exitDy=0;entryX=0;entryY=0.5;entryDx=0;entryDy=0;fontFamily=Architects Daughter;fontSource=https%3A%2F%2Ffonts.googleapis.com%2Fcss%3Ffamily%3DArchitects%2BDaughter;fontSize=15;endArrow=open;startSize=14;endSize=14;sourcePerimeterSpacing=8;targetPerimeterSpacing=8;" edge="1" parent="1" source="2MkG3pbl4p7UUgt_Ae9u-10" target="2MkG3pbl4p7UUgt_Ae9u-8">
          <mxGeometry relative="1" as="geometry" />
        </mxCell>
        <mxCell id="2MkG3pbl4p7UUgt_Ae9u-10" value="Read" style="rounded=1;whiteSpace=wrap;html=1;sketch=1;hachureGap=4;fontFamily=Architects Daughter;fontSource=https%3A%2F%2Ffonts.googleapis.com%2Fcss%3Ffamily%3DArchitects%2BDaughter;fontSize=15;" vertex="1" parent="1">
          <mxGeometry x="100" y="230" width="120" height="30" as="geometry" />
        </mxCell>
        <mxCell id="2MkG3pbl4p7UUgt_Ae9u-19" value="&lt;font face=&quot;Comic Sans MS&quot;&gt;(5)&lt;/font&gt;" style="edgeStyle=orthogonalEdgeStyle;curved=1;rounded=0;sketch=1;hachureGap=4;orthogonalLoop=1;jettySize=auto;html=1;exitX=1;exitY=0.5;exitDx=0;exitDy=0;entryX=0;entryY=0.5;entryDx=0;entryDy=0;fontFamily=Architects Daughter;fontSource=https%3A%2F%2Ffonts.googleapis.com%2Fcss%3Ffamily%3DArchitects%2BDaughter;fontSize=15;endArrow=open;startSize=14;endSize=14;sourcePerimeterSpacing=8;targetPerimeterSpacing=8;" edge="1" parent="1" source="2MkG3pbl4p7UUgt_Ae9u-11" target="2MkG3pbl4p7UUgt_Ae9u-12">
          <mxGeometry relative="1" as="geometry" />
        </mxCell>
        <mxCell id="2MkG3pbl4p7UUgt_Ae9u-11" value="Transform" style="rounded=1;whiteSpace=wrap;html=1;sketch=1;hachureGap=4;fontFamily=Architects Daughter;fontSource=https%3A%2F%2Ffonts.googleapis.com%2Fcss%3Ffamily%3DArchitects%2BDaughter;fontSize=15;" vertex="1" parent="1">
          <mxGeometry x="470" y="230" width="120" height="30" as="geometry" />
        </mxCell>
        <mxCell id="2MkG3pbl4p7UUgt_Ae9u-12" value="Transport" style="rounded=1;whiteSpace=wrap;html=1;sketch=1;hachureGap=4;fontFamily=Architects Daughter;fontSource=https%3A%2F%2Ffonts.googleapis.com%2Fcss%3Ffamily%3DArchitects%2BDaughter;fontSize=15;" vertex="1" parent="1">
          <mxGeometry x="650" y="230" width="120" height="30" as="geometry" />
        </mxCell>
        <mxCell id="2MkG3pbl4p7UUgt_Ae9u-17" value="&lt;font face=&quot;Comic Sans MS&quot;&gt;(3)&lt;/font&gt;" style="edgeStyle=orthogonalEdgeStyle;curved=1;rounded=0;sketch=1;hachureGap=4;orthogonalLoop=1;jettySize=auto;html=1;exitX=0.75;exitY=0;exitDx=0;exitDy=0;entryX=0.75;entryY=1;entryDx=0;entryDy=0;fontFamily=Architects Daughter;fontSource=https%3A%2F%2Ffonts.googleapis.com%2Fcss%3Ffamily%3DArchitects%2BDaughter;fontSize=15;endArrow=open;startSize=14;endSize=14;sourcePerimeterSpacing=8;targetPerimeterSpacing=8;" edge="1" parent="1" source="2MkG3pbl4p7UUgt_Ae9u-13" target="2MkG3pbl4p7UUgt_Ae9u-8">
          <mxGeometry relative="1" as="geometry" />
        </mxCell>
        <mxCell id="2MkG3pbl4p7UUgt_Ae9u-13" value="Cache" style="rounded=1;whiteSpace=wrap;html=1;sketch=1;hachureGap=4;fontFamily=Architects Daughter;fontSource=https%3A%2F%2Ffonts.googleapis.com%2Fcss%3Ffamily%3DArchitects%2BDaughter;fontSize=15;fillColor=#f8cecc;strokeColor=#b85450;" vertex="1" parent="1">
          <mxGeometry x="290" y="330" width="120" height="60" as="geometry" />
        </mxCell>
        <mxCell id="2MkG3pbl4p7UUgt_Ae9u-20" value="" style="shape=flexArrow;endArrow=classic;html=1;rounded=0;sketch=1;hachureGap=4;fontFamily=Comic Sans MS;fontSize=15;startSize=14;endSize=3.818181818181818;sourcePerimeterSpacing=8;targetPerimeterSpacing=8;curved=1;entryX=0.481;entryY=-0.025;entryDx=0;entryDy=0;entryPerimeter=0;width=69.09090909090908;fillColor=#dae8fc;strokeColor=#6c8ebf;" edge="1" parent="1">
          <mxGeometry width="50" height="50" relative="1" as="geometry">
            <mxPoint x="426" y="113" as="sourcePoint" />
            <mxPoint x="425.51" y="187.7500000000001" as="targetPoint" />
            <Array as="points">
              <mxPoint x="426" y="143" />
            </Array>
          </mxGeometry>
        </mxCell>
        <mxCell id="2MkG3pbl4p7UUgt_Ae9u-25" value="Key (Customer_ID+System_ID)" style="rounded=0;whiteSpace=wrap;html=1;sketch=1;hachureGap=4;fontFamily=Comic Sans MS;fontSize=15;shadow=0;fontStyle=1" vertex="1" parent="1">
          <mxGeometry x="130" y="550" width="280" height="30" as="geometry" />
        </mxCell>
        <mxCell id="2MkG3pbl4p7UUgt_Ae9u-27" value="Value (Queue&amp;lt;Msg&amp;gt;)" style="rounded=0;whiteSpace=wrap;html=1;sketch=1;hachureGap=4;fontFamily=Comic Sans MS;fontSize=15;shadow=0;fontStyle=1" vertex="1" parent="1">
          <mxGeometry x="490" y="550" width="530" height="30" as="geometry" />
        </mxCell>
        <mxCell id="2MkG3pbl4p7UUgt_Ae9u-31" value="Ken007_Wechat01" style="rounded=0;whiteSpace=wrap;html=1;sketch=1;hachureGap=4;fontFamily=Comic Sans MS;fontSize=15;" vertex="1" parent="1">
          <mxGeometry x="130" y="610" width="280" height="40" as="geometry" />
        </mxCell>
        <mxCell id="2MkG3pbl4p7UUgt_Ae9u-32" value="Msg1" style="rounded=0;whiteSpace=wrap;html=1;shadow=0;glass=0;sketch=1;hachureGap=4;fontFamily=Comic Sans MS;fontSize=15;" vertex="1" parent="1">
          <mxGeometry x="490" y="610" width="90" height="40" as="geometry" />
        </mxCell>
        <mxCell id="2MkG3pbl4p7UUgt_Ae9u-33" value="Msg2" style="rounded=0;whiteSpace=wrap;html=1;shadow=0;glass=0;sketch=1;hachureGap=4;fontFamily=Comic Sans MS;fontSize=15;" vertex="1" parent="1">
          <mxGeometry x="600" y="610" width="90" height="40" as="geometry" />
        </mxCell>
        <mxCell id="2MkG3pbl4p7UUgt_Ae9u-34" value="Msg3" style="rounded=0;whiteSpace=wrap;html=1;shadow=0;glass=0;sketch=1;hachureGap=4;fontFamily=Comic Sans MS;fontSize=15;" vertex="1" parent="1">
          <mxGeometry x="710" y="610" width="90" height="40" as="geometry" />
        </mxCell>
        <mxCell id="2MkG3pbl4p7UUgt_Ae9u-35" value="Msg4" style="rounded=0;whiteSpace=wrap;html=1;shadow=0;glass=0;sketch=1;hachureGap=4;fontFamily=Comic Sans MS;fontSize=15;" vertex="1" parent="1">
          <mxGeometry x="820" y="610" width="90" height="40" as="geometry" />
        </mxCell>
        <mxCell id="2MkG3pbl4p7UUgt_Ae9u-36" value="Msg5" style="rounded=0;whiteSpace=wrap;html=1;shadow=0;glass=0;sketch=1;hachureGap=4;fontFamily=Comic Sans MS;fontSize=15;" vertex="1" parent="1">
          <mxGeometry x="930" y="610" width="90" height="40" as="geometry" />
        </mxCell>
        <mxCell id="2MkG3pbl4p7UUgt_Ae9u-37" value="Selina006_Wechat01" style="rounded=0;whiteSpace=wrap;html=1;sketch=1;hachureGap=4;fontFamily=Comic Sans MS;fontSize=15;" vertex="1" parent="1">
          <mxGeometry x="130" y="680" width="280" height="40" as="geometry" />
        </mxCell>
        <mxCell id="2MkG3pbl4p7UUgt_Ae9u-38" value="Msg1" style="rounded=0;whiteSpace=wrap;html=1;shadow=0;glass=0;sketch=1;hachureGap=4;fontFamily=Comic Sans MS;fontSize=15;" vertex="1" parent="1">
          <mxGeometry x="490" y="680" width="90" height="40" as="geometry" />
        </mxCell>
        <mxCell id="2MkG3pbl4p7UUgt_Ae9u-39" value="Msg2" style="rounded=0;whiteSpace=wrap;html=1;shadow=0;glass=0;sketch=1;hachureGap=4;fontFamily=Comic Sans MS;fontSize=15;" vertex="1" parent="1">
          <mxGeometry x="600" y="680" width="90" height="40" as="geometry" />
        </mxCell>
        <mxCell id="2MkG3pbl4p7UUgt_Ae9u-40" value="Msg3" style="rounded=0;whiteSpace=wrap;html=1;shadow=0;glass=0;sketch=1;hachureGap=4;fontFamily=Comic Sans MS;fontSize=15;" vertex="1" parent="1">
          <mxGeometry x="710" y="680" width="90" height="40" as="geometry" />
        </mxCell>
        <mxCell id="2MkG3pbl4p7UUgt_Ae9u-41" value="Msg4" style="rounded=0;whiteSpace=wrap;html=1;shadow=0;glass=0;sketch=1;hachureGap=4;fontFamily=Comic Sans MS;fontSize=15;" vertex="1" parent="1">
          <mxGeometry x="820" y="680" width="90" height="40" as="geometry" />
        </mxCell>
        <mxCell id="2MkG3pbl4p7UUgt_Ae9u-42" value="Msg5" style="rounded=0;whiteSpace=wrap;html=1;shadow=0;glass=0;sketch=1;hachureGap=4;fontFamily=Comic Sans MS;fontSize=15;" vertex="1" parent="1">
          <mxGeometry x="930" y="680" width="90" height="40" as="geometry" />
        </mxCell>
        <mxCell id="2MkG3pbl4p7UUgt_Ae9u-43" value="......." style="rounded=0;whiteSpace=wrap;html=1;sketch=1;hachureGap=4;fontFamily=Comic Sans MS;fontSize=15;" vertex="1" parent="1">
          <mxGeometry x="130" y="750" width="280" height="40" as="geometry" />
        </mxCell>
        <mxCell id="2MkG3pbl4p7UUgt_Ae9u-44" value="..." style="rounded=0;whiteSpace=wrap;html=1;shadow=0;glass=0;sketch=1;hachureGap=4;fontFamily=Comic Sans MS;fontSize=15;" vertex="1" parent="1">
          <mxGeometry x="490" y="750" width="90" height="40" as="geometry" />
        </mxCell>
        <mxCell id="2MkG3pbl4p7UUgt_Ae9u-45" value="..." style="rounded=0;whiteSpace=wrap;html=1;shadow=0;glass=0;sketch=1;hachureGap=4;fontFamily=Comic Sans MS;fontSize=15;" vertex="1" parent="1">
          <mxGeometry x="600" y="750" width="90" height="40" as="geometry" />
        </mxCell>
        <mxCell id="2MkG3pbl4p7UUgt_Ae9u-46" value="..." style="rounded=0;whiteSpace=wrap;html=1;shadow=0;glass=0;sketch=1;hachureGap=4;fontFamily=Comic Sans MS;fontSize=15;" vertex="1" parent="1">
          <mxGeometry x="710" y="750" width="90" height="40" as="geometry" />
        </mxCell>
        <mxCell id="2MkG3pbl4p7UUgt_Ae9u-47" value="..." style="rounded=0;whiteSpace=wrap;html=1;shadow=0;glass=0;sketch=1;hachureGap=4;fontFamily=Comic Sans MS;fontSize=15;" vertex="1" parent="1">
          <mxGeometry x="820" y="750" width="90" height="40" as="geometry" />
        </mxCell>
        <mxCell id="2MkG3pbl4p7UUgt_Ae9u-48" value="..." style="rounded=0;whiteSpace=wrap;html=1;shadow=0;glass=0;sketch=1;hachureGap=4;fontFamily=Comic Sans MS;fontSize=15;" vertex="1" parent="1">
          <mxGeometry x="930" y="750" width="90" height="40" as="geometry" />
        </mxCell>
        <mxCell id="2MkG3pbl4p7UUgt_Ae9u-50" style="rounded=0;sketch=1;hachureGap=4;orthogonalLoop=1;jettySize=auto;html=1;exitX=1;exitY=0.5;exitDx=0;exitDy=0;entryX=0.016;entryY=0.416;entryDx=0;entryDy=0;entryPerimeter=0;fontFamily=Comic Sans MS;fontSize=12;endArrow=oval;startSize=14;endSize=14;sourcePerimeterSpacing=8;targetPerimeterSpacing=8;edgeStyle=entityRelationEdgeStyle;startArrow=oval;startFill=1;endFill=1;shadow=0;" edge="1" parent="1" source="2MkG3pbl4p7UUgt_Ae9u-27" target="2MkG3pbl4p7UUgt_Ae9u-49">
          <mxGeometry relative="1" as="geometry" />
        </mxCell>
        <mxCell id="2MkG3pbl4p7UUgt_Ae9u-51" value="&lt;blockquote style=&quot;margin: 0 0 0 40px; border: none; padding: 0px;&quot;&gt;&lt;b&gt;Example Data of Msg&amp;nbsp;&lt;br&gt;&lt;/b&gt;&lt;span style=&quot;font-size: 12px;&quot;&gt;&lt;i&gt;Header {&lt;/i&gt;&lt;/span&gt;&lt;/blockquote&gt;&lt;blockquote style=&quot;margin: 0 0 0 40px; border: none; padding: 0px;&quot;&gt;&lt;span style=&quot;font-size: 12px;&quot;&gt;&lt;i&gt;&amp;nbsp; &amp;nbsp; &amp;nbsp; &amp;nbsp; &amp;nbsp;Type : Create,&lt;/i&gt;&lt;/span&gt;&lt;/blockquote&gt;&lt;blockquote style=&quot;margin: 0 0 0 40px; border: none; padding: 0px;&quot;&gt;&lt;span style=&quot;font-size: 12px;&quot;&gt;&lt;i&gt;&amp;nbsp; &amp;nbsp; &amp;nbsp; &amp;nbsp; &amp;nbsp; Customer_ID : Ken007&lt;/i&gt;&lt;/span&gt;&lt;/blockquote&gt;&lt;blockquote style=&quot;margin: 0 0 0 40px; border: none; padding: 0px;&quot;&gt;&lt;span style=&quot;font-size: 12px;&quot;&gt;&lt;i&gt;&amp;nbsp; &amp;nbsp; &amp;nbsp; &amp;nbsp; &amp;nbsp; System_ID : Wechat01&lt;/i&gt;&lt;/span&gt;&lt;/blockquote&gt;&lt;blockquote style=&quot;margin: 0 0 0 40px; border: none; padding: 0px;&quot;&gt;&lt;span style=&quot;font-size: 12px;&quot;&gt;&lt;i&gt;&amp;nbsp; &amp;nbsp; &amp;nbsp; &amp;nbsp; &amp;nbsp; Mobile : 123&lt;/i&gt;&lt;/span&gt;&lt;/blockquote&gt;&lt;blockquote style=&quot;margin: 0 0 0 40px; border: none; padding: 0px;&quot;&gt;&lt;span style=&quot;font-size: 12px;&quot;&gt;&lt;i&gt;&amp;nbsp; &amp;nbsp; &amp;nbsp; &amp;nbsp; &amp;nbsp; LastModifiedTimeStamp :&amp;nbsp; &amp;nbsp; 1111111111111111111111111&lt;/i&gt;&lt;/span&gt;&lt;/blockquote&gt;&lt;blockquote style=&quot;margin: 0 0 0 40px; border: none; padding: 0px;&quot;&gt;&lt;span style=&quot;font-size: 12px;&quot;&gt;&lt;i&gt;}&lt;/i&gt;&lt;/span&gt;&lt;/blockquote&gt;" style="shape=note;whiteSpace=wrap;html=1;backgroundOutline=1;darkOpacity=0.05;rounded=0;shadow=0;glass=0;sketch=1;hachureGap=4;fontFamily=Comic Sans MS;fontSize=15;align=left;dashed=1;" vertex="1" parent="1">
          <mxGeometry x="1214" y="600" width="416" height="190" as="geometry" />
        </mxCell>
        <mxCell id="2MkG3pbl4p7UUgt_Ae9u-52" style="edgeStyle=entityRelationEdgeStyle;rounded=0;sketch=1;hachureGap=4;orthogonalLoop=1;jettySize=auto;html=1;exitX=1;exitY=0.5;exitDx=0;exitDy=0;shadow=0;fontFamily=Comic Sans MS;fontSize=12;startArrow=oval;startFill=1;endArrow=oval;endFill=1;startSize=14;endSize=14;sourcePerimeterSpacing=8;targetPerimeterSpacing=8;" edge="1" parent="1" source="2MkG3pbl4p7UUgt_Ae9u-36" target="2MkG3pbl4p7UUgt_Ae9u-51">
          <mxGeometry relative="1" as="geometry" />
        </mxCell>
        <mxCell id="2MkG3pbl4p7UUgt_Ae9u-53" value="" style="shape=flexArrow;endArrow=classic;html=1;rounded=0;sketch=1;hachureGap=4;fontFamily=Comic Sans MS;fontSize=15;startSize=14;endSize=3.818181818181818;sourcePerimeterSpacing=8;targetPerimeterSpacing=8;curved=1;entryX=0.481;entryY=-0.025;entryDx=0;entryDy=0;entryPerimeter=0;width=69.09090909090908;fillColor=#dae8fc;strokeColor=#6c8ebf;" edge="1" parent="1">
          <mxGeometry width="50" height="50" relative="1" as="geometry">
            <mxPoint x="422" y="430" as="sourcePoint" />
            <mxPoint x="421.5100000000002" y="504.75" as="targetPoint" />
            <Array as="points">
              <mxPoint x="422" y="460" />
            </Array>
          </mxGeometry>
        </mxCell>
      </root>
    </mxGraphModel>
  </diagram>
</mxfile>
